<?xml version="1.0" encoding="UTF-8" standalone="no"?>
<!DOCTYPE svg PUBLIC "-//W3C//DTD SVG 1.1//EN" "http://www.w3.org/Graphics/SVG/1.1/DTD/svg11.dtd">
<svg width="100%" height="100%" viewBox="0 0 583 583" version="1.1" xmlns="http://www.w3.org/2000/svg" xmlns:xlink="http://www.w3.org/1999/xlink" xml:space="preserve" xmlns:serif="http://www.serif.com/" style="fill-rule:evenodd;clip-rule:evenodd;stroke-linejoin:round;stroke-miterlimit:2;">
    <g transform="matrix(1,0,0,1,-228.91,-226.653)">
        <g>
            <g transform="matrix(1.06192,0,0,1.06192,-32.2201,-52.367)">
                <circle cx="520.313" cy="537.159" r="274.41" style="fill:white;"/>
            </g>
            <path d="M383.418,302.666C422.955,277.374 469.939,262.749 520.312,262.749L520.312,773.207C379.448,773.207 265.084,658.843 265.084,517.978C265.084,442.559 297.867,374.737 349.983,328.009L349.983,497.978L383.418,497.978L383.418,302.666Z" style="fill:rgb(201,8,42);"/>
            <g transform="matrix(-1,-1.22465e-16,1.22465e-16,-1,1040.63,1035.96)">
                <path d="M473.798,266.999C488.871,264.205 504.423,262.749 520.313,262.749L520.313,773.207C379.448,773.207 265.084,658.843 265.084,517.978C265.084,405.582 337.893,310.058 438.879,276.042L438.879,473.834L473.798,473.834L473.798,266.999Z" style="fill:rgb(23,64,139);"/>
            </g>
            <g transform="matrix(200,0,0,200,349.983,577.978)">
                <path d="M0.168,-0.399C0.168,-0.333 0.191,-0.277 0.237,-0.23C0.283,-0.183 0.339,-0.159 0.405,-0.159L0.482,-0.159C0.526,-0.159 0.564,-0.143 0.595,-0.113C0.626,-0.082 0.641,-0.044 0.641,-0L0.405,-0C0.294,-0 0.199,-0.039 0.12,-0.117C0.04,-0.194 0,-0.288 0,-0.399L0,-0.8C0.046,-0.8 0.086,-0.784 0.119,-0.751C0.152,-0.718 0.168,-0.678 0.168,-0.632L0.168,-0.399Z" style="fill:white;fill-rule:nonzero;"/>
            </g>
            <g transform="matrix(200,0,0,200,566.827,577.978)">
                <path d="M0.168,0.032L0.168,-0L0.405,-0C0.516,-0 0.612,-0.039 0.692,-0.117C0.771,-0.194 0.811,-0.288 0.811,-0.399C0.811,-0.51 0.771,-0.604 0.691,-0.683C0.611,-0.761 0.516,-0.8 0.405,-0.8C0.294,-0.8 0.199,-0.761 0.12,-0.683C0.04,-0.604 0,-0.51 0,-0.399L0,0.2C0.046,0.2 0.086,0.184 0.119,0.151C0.152,0.118 0.168,0.078 0.168,0.032ZM0.169,-0.159L0.169,-0.399C0.169,-0.465 0.192,-0.522 0.238,-0.57C0.283,-0.617 0.339,-0.641 0.405,-0.641C0.471,-0.641 0.527,-0.617 0.573,-0.57C0.618,-0.522 0.641,-0.465 0.641,-0.399C0.641,-0.333 0.618,-0.277 0.573,-0.23C0.527,-0.183 0.471,-0.159 0.405,-0.159L0.169,-0.159Z" style="fill:white;fill-rule:nonzero;"/>
            </g>
            <rect x="442.806" y="546.266" width="158.94" height="31.712" style="fill:white;"/>
            <g transform="matrix(1,0,0,1.20712,0,-160.15)">
                <path d="M601.746,762.195C590.44,765.352 578.781,767.869 566.827,769.686L566.827,598.341L601.746,598.341L601.746,762.195Z" style="fill:white;"/>
            </g>
            <g transform="matrix(0.994809,0,0,1.1521,1.81691,-44.2536)">
                <path d="M383.592,301.119L383.592,470.646L349.983,470.646L349.983,323.116C360.437,315.006 371.668,307.627 383.592,301.119Z" style="fill:white;"/>
            </g>
            <g transform="matrix(0.148027,0,0,0.982834,445.792,4.51039)">
                <rect x="486.535" y="262.749" width="33.778" height="519.373" style="fill:white;"/>
            </g>
        </g>
    </g>
</svg>
