<?xml version="1.0" encoding="UTF-8" standalone="no"?>
<!DOCTYPE svg PUBLIC "-//W3C//DTD SVG 1.1//EN" "http://www.w3.org/Graphics/SVG/1.1/DTD/svg11.dtd">
<svg width="100%" height="100%" viewBox="0 0 1910 292" version="1.1" xmlns="http://www.w3.org/2000/svg" xmlns:xlink="http://www.w3.org/1999/xlink" xml:space="preserve" xmlns:serif="http://www.serif.com/" style="fill-rule:evenodd;clip-rule:evenodd;stroke-linejoin:round;stroke-miterlimit:2;">
    <g transform="matrix(1,0,0,1,2.13551e-13,-71.0175)">
        <g transform="matrix(1.05521,0,0,1.05521,-65.8044,-20.0083)">
            <path d="M298.51,86.79C309.19,86.02 320.75,85.36 330.55,90.44C337.9,94.24 340.3,103.24 339.57,110.94C338.79,122.28 336.54,134.85 327.7,142.84C319.33,150.08 307.64,151 297.06,151.09C289.07,150.82 280.37,150.3 273.73,145.32C267.71,140.67 266.43,132.35 267.19,125.21C268,115.21 269.93,104.51 276.69,96.68C282.13,90.38 290.5,87.75 298.51,86.79Z" style="fill:rgb(197,10,5);fill-rule:nonzero;"/>
        </g>
        <g transform="matrix(1.05521,0,0,1.05521,-65.8044,-20.0083)">
            <path d="M592.19,88.81C613.13,88.82 634.08,88.81 655.02,88.81C646.7,141.79 638.2,194.73 629.93,247.72C651.07,219.93 672.25,192.16 693.39,164.37C717.74,164.37 742.09,164.38 766.45,164.37C742.93,193.56 719.47,222.8 695.99,252.03C709.97,287.97 724.02,323.88 738.01,359.82C712.71,359.77 687.41,359.81 662.11,359.79C650.73,326.52 639.36,293.23 627.95,259.97C622.65,293.24 617.39,326.52 612.13,359.79C591.18,359.8 570.23,359.79 549.28,359.8C563.59,269.47 577.9,179.14 592.19,88.81Z" style="fill:rgb(197,10,5);fill-rule:nonzero;"/>
        </g>
        <g transform="matrix(1.05521,0,0,1.05521,-65.8044,-20.0083)">
            <path d="M135,107.92C143.39,105.68 152.03,104.57 160.69,104.1C151.4,162.66 142.09,221.21 132.86,279.78C132.43,285.55 130.69,291.6 132.82,297.24C134.37,301.05 138.55,302.8 142.39,303.26C146.24,303.67 150.11,303.82 153.98,303.87L221.06,303.87C218.21,321.97 215.38,340.08 212.49,358.18C189.01,359.14 165.53,360.12 142.03,360.44C125.69,360.33 109.06,360.11 93.22,355.66C81.53,352.35 70.6,344.5 66.14,332.86C59.6,316.42 62.97,298.4 65.7,281.52C73.61,231.88 81.44,182.22 89.4,132.58C102.65,121.29 118.04,112.25 135,107.92Z" style="fill:rgb(197,10,5);fill-rule:nonzero;"/>
        </g>
        <g transform="matrix(1.05521,0,0,1.05521,-65.8044,-20.0083)">
            <path d="M373.52,182.02C399.78,167.37 430.23,161.95 460.04,161.75C477.61,162.24 496.08,162.6 512,171C521.46,175.83 528.52,184.9 530.82,195.28C533.99,209.86 531.82,224.87 529.68,239.43C523.31,279.56 516.94,319.68 510.57,359.8C489.74,359.8 468.9,359.78 448.07,359.81C453.64,324.57 459.25,289.33 464.83,254.08C466.17,245.41 467.85,236.71 467.8,227.91C467.79,222.61 464.68,217.2 459.36,215.73C449.84,212.92 439.64,214.34 430.1,216.35C424.75,237.95 422.16,260.09 418.48,282C414.38,307.93 410.26,333.86 406.18,359.8L343.75,359.8C348.74,328.59 353.65,297.38 358.61,266.17C363.21,238.06 366.89,209.76 373.52,182.02Z" style="fill:rgb(197,10,5);fill-rule:nonzero;"/>
        </g>
        <g transform="matrix(1.05521,0,0,1.05521,-65.8044,-20.0083)">
            <path d="M264.5,164.36C285.66,164.37 306.82,164.39 327.98,164.36C317.7,229.51 307.33,294.64 297.06,359.79C275.88,359.8 254.71,359.79 233.53,359.8C243.9,294.66 254.16,229.51 264.5,164.36Z" style="fill:rgb(197,10,5);fill-rule:nonzero;"/>
        </g>
        <g transform="matrix(1.05521,0,0,1.05521,-65.8044,-20.0083)">
            <path d="M860.68,106.78C876.44,101.53 893.57,100.06 909.95,103.02C930.36,106.88 950.05,116.37 964.58,131.38C976.64,143.66 984.09,160.64 983.59,177.97C983.1,190.48 980.27,202.9 975.53,214.47C968.97,230.51 957.37,244.46 942.63,253.6C924.84,264.81 903.77,269.6 883.01,271.04C871.48,272 859.93,271.23 848.4,270.8C844.61,294.49 840.86,318.18 837.09,341.87C817.14,356.48 791.62,360.06 767.49,359.83C776.6,302.46 785.69,245.09 794.8,187.73C798.1,169.47 806.2,152.16 817.72,137.65C828.8,123.64 843.71,112.55 860.68,106.78M879.67,160.83C867.52,166.95 861.52,180.67 859.76,193.54C859.17,201 858.07,208.4 857.07,215.81C870.86,217.4 885.56,217.52 898.3,211.24C906.88,207.2 913.77,199.39 915.91,190.06C917.87,183.02 917.93,174.72 913.41,168.62C909.35,162.63 902.03,159.9 895.1,159.07C889.94,158.57 884.32,158.03 879.67,160.83Z" style="fill:rgb(12,60,134);fill-rule:nonzero;"/>
        </g>
        <g transform="matrix(1.05521,0,0,1.05521,-65.8044,-20.0083)">
            <path d="M1010.34,169.93C1040.93,164.73 1071.98,160.59 1103.07,162.21C1117.83,163.58 1133.4,166.19 1145.46,175.45C1154.11,182.01 1159.5,192.24 1161.01,202.9C1163.46,218.24 1159.35,233.48 1157.27,248.61C1152.05,279.84 1148.14,311.33 1140.84,342.18C1119.83,353.99 1095.97,359.95 1072.04,361.68C1054.33,362.96 1036.31,362.87 1018.93,358.86C1007.62,355.99 996.38,350.1 990.1,339.91C982.87,328.33 982.66,313.97 984.37,300.84C986.07,288.83 989.11,276.77 995.24,266.21C1001.39,255.6 1010.96,247.19 1021.94,241.83C1046.05,230.65 1073.14,229.79 1099.23,228.43C1099.53,224.65 1099.77,220.14 1096.69,217.35C1092.67,213.8 1086.95,213.82 1081.9,213.54C1057.09,213.06 1032.42,216.13 1007.81,218.76C1008.65,202.48 1009.48,186.2 1010.34,169.93M1058.43,276.55C1049.72,280.22 1047.33,290.57 1046.52,299.05C1045.74,304.53 1049.29,310.09 1054.76,311.31C1064.66,313.55 1074.97,312.27 1084.83,310.36C1088.25,297.28 1090.28,283.91 1092.45,270.58C1081.02,271.78 1069.23,272.31 1058.43,276.55Z" style="fill:rgb(12,60,134);fill-rule:nonzero;"/>
        </g>
        <g transform="matrix(1.05521,0,0,1.05521,-65.8044,-20.0083)">
            <path d="M1256.09,163.65C1267.58,161.49 1279.34,161.61 1290.98,162.03C1311.6,162.44 1332.02,165.99 1351.95,171.14C1347.52,186.61 1343.11,202.09 1338.67,217.56C1325.94,214.7 1313.08,212.23 1300.05,211.4C1289.86,210.98 1279.51,210.41 1269.46,212.55C1265.02,213.48 1260.71,216.99 1260.72,221.85C1260.37,225.72 1263.56,228.69 1266.81,230.16C1273.96,233.36 1281.56,235.41 1288.86,238.23C1297.53,241.63 1306.54,244.44 1314.46,249.46C1321.87,253.96 1328.39,260.53 1331.24,268.88C1335.42,280.81 1334.07,293.85 1331.51,305.99C1328.11,322.28 1319.37,337.9 1305.44,347.42C1288.78,359.13 1267.82,361.91 1247.95,362.37C1223.03,362.39 1198,359.43 1174.03,352.49C1178.49,336.68 1183.03,320.89 1187.5,305.08C1201.85,307.95 1216.32,310.3 1230.91,311.53C1241.31,312.04 1252.03,313.02 1262.19,310.17C1268.77,308.4 1272.18,298.9 1266.94,294.01C1262.79,290.59 1257.3,289.54 1252.35,287.78C1238.93,283.55 1225.35,278.64 1214.22,269.77C1209.78,265.85 1205.45,261.6 1202.69,256.29C1196.68,245.38 1196.2,232.29 1198.44,220.28C1200.73,207.32 1205.73,194.52 1214.61,184.63C1225.17,172.73 1240.52,165.87 1256.09,163.65Z" style="fill:rgb(12,60,134);fill-rule:nonzero;"/>
        </g>
        <g transform="matrix(1.05521,0,0,1.05521,-65.8044,-20.0083)">
            <path d="M1399.99,176.89C1412.57,167.28 1428.47,163.47 1443.99,162.22C1472.55,160.54 1501.29,163.78 1528.92,171.14C1524.47,186.61 1520.1,202.11 1515.6,217.57C1500.63,214.15 1485.41,211.38 1470.01,211.11C1461.68,210.96 1453.16,210.74 1445.06,212.96C1440.38,214.22 1436.7,218.99 1437.84,223.93C1438.88,228.02 1443.04,230.02 1446.66,231.39C1454.43,234.43 1462.46,236.75 1470.2,239.9C1480.99,243.88 1492.27,248.12 1500.42,256.6C1508.78,264.62 1511.28,276.84 1510.83,288.02C1510.04,305.42 1505.31,323.39 1493.9,336.93C1482.72,350.28 1465.84,357.71 1448.89,360.22C1428.43,363.77 1407.51,362.39 1387,359.98C1374.83,358.39 1362.8,355.88 1351.01,352.5C1355.45,336.68 1360.01,320.89 1364.47,305.08C1378.49,307.91 1392.63,310.16 1406.88,311.46C1417.61,312 1428.67,313.1 1439.16,310.16C1445.99,308.36 1449.28,298.24 1443.43,293.59C1438.99,290.4 1433.49,289.24 1428.4,287.5C1417.98,284.2 1407.61,280.42 1398.23,274.73C1389.79,269.44 1382.03,262.32 1378.05,253.01C1373.09,241.68 1373.42,228.76 1376.08,216.89C1379.24,201.41 1387.09,186.4 1399.99,176.89Z" style="fill:rgb(12,60,134);fill-rule:nonzero;"/>
        </g>
        <g transform="matrix(1.05521,0,0,1.05521,-65.8044,-20.0083)">
            <path d="M1616.19,164.43C1632.4,161.36 1649.1,161.03 1665.49,162.78C1679.25,164.48 1693.52,168.43 1703.86,178.16C1712.89,186.59 1717.38,198.8 1718.74,210.86C1721.03,233.89 1717.28,256.98 1712.58,279.48C1675.68,286.02 1638.25,288.82 1600.86,290.9C1600.52,295.8 1600.86,301.53 1604.96,304.91C1611.16,309.83 1619.53,309.46 1627.01,309.94C1651.76,310.53 1676.39,307.56 1700.95,304.85C1700.11,321.28 1699.27,337.71 1698.42,354.13C1672.17,358.72 1645.63,361.89 1618.98,362.23C1599.81,363.01 1579.09,361.48 1562.92,350.1C1549.97,341.13 1543.2,325.69 1541.25,310.45C1538.53,286.84 1542.11,263.02 1547.38,240C1552.17,220.4 1559.65,200.57 1574.02,185.9C1585.25,174.34 1600.51,167.43 1616.19,164.43M1616.73,219.68C1609.72,226.8 1607.91,237.11 1606.21,246.56C1622.86,245.71 1639.53,244.82 1656.09,242.82C1657.7,235.45 1659.08,227.23 1655.71,220.15C1653.05,214.76 1646.77,212.55 1641.12,212.32C1632.55,211.96 1623.03,213.31 1616.73,219.68Z" style="fill:rgb(12,60,134);fill-rule:nonzero;"/>
        </g>
        <g transform="matrix(1.05521,0,0,1.05521,-65.8044,-20.0083)">
            <path d="M1784.98,172.95C1812.8,162.85 1843.06,159.62 1872.43,163.12C1867.99,180.5 1863.58,197.88 1859.15,215.26C1846.5,213.88 1833.35,214.41 1821.49,219.42C1817.01,237.72 1814.63,256.44 1811.57,275.01C1807.08,303.29 1802.59,331.56 1798.11,359.83C1777.33,359.84 1756.55,359.84 1735.77,359.83C1742.84,315.18 1749.92,270.53 1756.99,225.88C1759.38,211.27 1762.03,196.69 1765.65,182.33C1771.5,178.27 1778.37,175.65 1784.98,172.95Z" style="fill:rgb(12,60,134);fill-rule:nonzero;"/>
        </g>
    </g>
</svg>
