<?xml version="1.0" encoding="utf-8"?>
<!-- Generator: Adobe Illustrator 21.0.0, SVG Export Plug-In . SVG Version: 6.00 Build 0)  -->
<svg version="1.1" id="Layer_1" xmlns="http://www.w3.org/2000/svg" xmlns:xlink="http://www.w3.org/1999/xlink" x="0px" y="0px"
	 viewBox="0 0 600 600" style="enable-background:new 0 0 600 600;" xml:space="preserve">
<style type="text/css">
	.st0{fill:#FFFFFF;}
	.st1{fill:#C9082A;}
	.st2{fill:#17408B;}
</style>
<g>
	<g transform="matrix(3.64419,0,0,3.64419,-896.117,-957.508)">
		<path class="st0" d="M328.2,263.4c-45.1,0-81.7,36.6-81.7,81.7s36.6,81.7,81.7,81.7c45.1,0,81.7-36.6,81.7-81.7
			S373.3,263.4,328.2,263.4z M326.1,417.1c-38.8-1.1-69.9-33-69.9-72c0-21.3,9.3-40.4,24-53.6l8.5-6.4l0,31.4l0,9.1v13.5
			c0,6.3,2.3,11.6,6.7,16c4.5,4.3,9.9,6.9,16.1,6.9h14.7V417.1z M326.1,353h-14.6c0,0,0,0,0,0c-3.7,0-6.9-1.7-9.5-4.3
			c-2.6-2.7-3.9-5.9-3.9-9.6v-13.2c0-0.3,0-0.7,0-1v0l0-45.3c8.6-4,18.1-6.3,28.1-6.6V353z M341.4,415.9L341.4,415.9
			c-3.6,0.7-7.3,1.1-11,1.2V362h11V415.9z M351.2,413.4V362h13c6.3,0,11.7-2.2,16.2-6.6c4.5-4.3,6.7-9.7,6.7-15.9
			c0-6.3-2.3-11.6-6.8-16c-4.5-4.4-9.9-6.6-16.1-6.6c-6.3,0-11.6,2.2-16.1,6.6c-4.5,4.5-6.8,9.8-6.8,16V353h-11v-80
			c38.8,1.1,69.9,33,69.9,72C400.3,376.8,379.7,403.8,351.2,413.4z M350.9,353v-13.6c0-3.7,1.3-6.9,3.9-9.7c2.5-2.7,5.7-4,9.4-4
			c3.7,0,6.9,1.4,9.5,4c2.5,2.7,3.8,5.9,3.8,9.7c0,3.7-1.3,6.9-3.8,9.5c-2.6,2.7-5.8,4-9.5,4H350.9z"/>
		<path class="st0" d="M377.6,339.5c0,3.7-1.3,6.9-3.8,9.5c-2.6,2.7-5.8,4-9.5,4h-13.3v-13.6c0-3.7,1.3-6.9,3.9-9.7
			c2.5-2.7,5.7-4,9.4-4c3.7,0,6.9,1.4,9.5,4C376.3,332.5,377.6,335.7,377.6,339.5z"/>
		<path class="st0" d="M326.1,362v55.1c-38.8-1.1-69.9-33-69.9-72c0-21.3,9.3-40.4,24-53.6l8.5-6.4l0,31.4l0,9.1v13.5
			c0,6.3,2.3,11.6,6.7,16c4.5,4.3,9.9,6.9,16.1,6.9H326.1z"/>
		<path class="st0" d="M341.4,362v53.9h0c-3.6,0.7-7.3,1.1-11,1.2V362H341.4z"/>
		<path class="st0" d="M326.1,273v80h-14.6c0,0,0,0,0,0c-3.7,0-6.9-1.7-9.5-4.3c-2.6-2.7-3.9-5.9-3.9-9.6v-13.2c0-0.3,0-0.7,0-1v0
			l0-45.3C306.6,275.6,316.1,273.3,326.1,273z"/>
		<path class="st0" d="M400.3,345c0,31.7-20.6,58.7-49.1,68.3V362h13c6.3,0,11.7-2.2,16.2-6.6c4.5-4.3,6.7-9.7,6.7-15.9
			c0-6.3-2.3-11.6-6.8-16c-4.5-4.4-9.9-6.6-16.1-6.6c-6.3,0-11.6,2.2-16.1,6.6c-4.5,4.5-6.8,9.8-6.8,16V353h-11v-80
			C369.1,274.1,400.3,306,400.3,345z"/>
	</g>
	<g transform="matrix(3.45701,0,0,3.45701,-798.724,-790.921)">
		<path class="st1" d="M315.6,333.4v58.1c-40.9-1.2-73.7-34.8-73.7-75.9c0-22.4,9.8-42.6,25.3-56.5l8.9-6.8l0,33.1l0,9.6v14.3
			c0,6.6,2.4,12.2,7.1,16.8c4.8,4.6,10.4,7.3,17,7.3H315.6z"/>
		<path class="st1" d="M315.6,239.6V324h-15.4c0,0-0.1,0-0.1,0c-3.9,0-7.3-1.8-10-4.6c-2.7-2.8-4.1-6.2-4.1-10.1v-13.9
			c0-0.4,0-0.7,0-1v0l0-47.8C295,242.4,305,239.9,315.6,239.6z"/>
	</g>
	<g transform="matrix(-3.45701,-4.23361e-16,4.23361e-16,-3.45701,2798.72,2790.39)">
		<path class="st2" d="M670.8,726.3c0-3.9,1.4-7.3,4-10.1c2.7-2.8,6.1-4.2,10-4.2h14v14.3c0,3.9-1.4,7.3-4.1,10.2
			c-2.7,2.8-6,4.2-9.9,4.2c-3.9,0-7.3-1.4-10-4.2C672.2,733.6,670.8,730.2,670.8,726.3z"/>
		<path class="st2" d="M709,702.6v-56.8h0c3.8-0.7,7.7-1.1,11.6-1.2v58.1H709z"/>
		<path class="st2" d="M646.8,720.4c0-33.5,21.7-61.9,51.7-72v54.2h-13.7c-6.6,0-12.3,2.3-17.1,7c-4.7,4.6-7.1,10.2-7.1,16.8
			s2.4,12.2,7.1,16.9c4.8,4.6,10.4,7,17,7c6.6,0,12.3-2.3,17-7c4.8-4.7,7.1-10.3,7.1-16.9V712h11.6v84.4
			C679.7,795.2,646.8,761.6,646.8,720.4z"/>
	</g>
	<g transform="matrix(691.402,0,0,691.402,509.479,1207.15)">
		<polygon class="st0" points="-0.5,-1.5 -0.5,-1.4 -0.5,-1.5 		"/>
	</g>
	<g transform="matrix(691.402,0,0,691.402,1160.8,1207.15)">
		<path class="st0" d="M-1.2-1.2L-1.2-1.2L-1.2-1.2L-1.2-1.2L-1.2-1.2z"/>
	</g>
	<g transform="matrix(691.402,0,0,691.402,1160.8,1207.15)">
		<path class="st0" d="M-1.2-1.2L-1.2-1.2L-1.2-1.2L-1.2-1.2L-1.2-1.2z"/>
	</g>
	<g transform="matrix(3.43906,0,0,3.98282,-694.135,-943.906)">
		<polygon class="st0" points="247,294.4 247,306.8 247,306.8 		"/>
	</g>
</g>
</svg>
