<?xml version="1.0" encoding="UTF-8" standalone="no"?>
<!DOCTYPE svg PUBLIC "-//W3C//DTD SVG 1.1//EN" "http://www.w3.org/Graphics/SVG/1.1/DTD/svg11.dtd">
<svg width="100%" height="100%" viewBox="0 0 2000 2000" version="1.1" xmlns="http://www.w3.org/2000/svg" xmlns:xlink="http://www.w3.org/1999/xlink" xml:space="preserve" xmlns:serif="http://www.serif.com/" style="fill-rule:evenodd;clip-rule:evenodd;stroke-linejoin:round;stroke-miterlimit:2;">
    <g transform="matrix(3.64419,0,0,3.64419,-896.117,-957.508)">
        <circle cx="520.313" cy="537.159" r="274.41" style="fill:white;"/>
    </g>
    <g transform="matrix(3.45701,0,0,3.45701,-798.724,-790.921)">
        <path d="M383.418,302.666C422.955,277.374 469.939,262.749 520.312,262.749L520.312,773.207C379.448,773.207 265.084,658.843 265.084,517.978C265.084,442.559 297.867,374.737 349.983,328.009L383.418,302.666Z" style="fill:rgb(201,8,42);"/>
    </g>
    <g transform="matrix(-3.45701,-4.23361e-16,4.23361e-16,-3.45701,2798.72,2790.39)">
        <path d="M473.798,266.999C488.871,264.205 504.423,262.749 520.313,262.749L520.313,773.207C379.448,773.207 265.084,658.843 265.084,517.978C265.084,405.582 337.893,310.058 438.879,276.042L473.798,266.999Z" style="fill:rgb(23,64,139);"/>
    </g>
    <g transform="matrix(691.402,0,0,691.402,509.479,1207.15)">
        <path d="M0.175,-0.406C0.175,-0.34 0.198,-0.283 0.244,-0.236C0.29,-0.189 0.346,-0.159 0.412,-0.159C0.412,-0.159 0.641,-0.044 0.641,-0L0.412,0C0.301,0 0.206,-0.046 0.126,-0.123C0.047,-0.201 0.007,-0.295 0.007,-0.406L0.007,-0.807C0.053,-0.807 0.092,-0.79 0.125,-0.757C0.158,-0.724 0.175,-0.685 0.175,-0.639L0.175,-0.406Z" style="fill:white;fill-rule:nonzero;"/>
    </g>
    <g transform="matrix(691.402,0,0,691.402,1160.8,1207.15)">
        <path d="M0.168,0.032L0.168,-0L0.405,-0C0.516,-0 0.612,-0.039 0.692,-0.117C0.771,-0.194 0.811,-0.288 0.811,-0.399C0.811,-0.51 0.771,-0.604 0.691,-0.683C0.611,-0.761 0.516,-0.8 0.405,-0.8C0.294,-0.8 0.199,-0.761 0.12,-0.683C0.04,-0.604 0,-0.51 0,-0.399L0,0.2C0.046,0.2 0.086,0.184 0.119,0.151C0.152,0.118 0.168,0.078 0.168,0.032ZM0.169,-0.159L0.169,-0.399C0.169,-0.465 0.192,-0.522 0.238,-0.57C0.283,-0.617 0.339,-0.641 0.405,-0.641C0.471,-0.641 0.527,-0.617 0.573,-0.57C0.618,-0.522 0.641,-0.465 0.641,-0.399C0.641,-0.333 0.618,-0.277 0.573,-0.23C0.527,-0.183 0.471,-0.159 0.405,-0.159L0.169,-0.159Z" style="fill:white;fill-rule:nonzero;"/>
    </g>
    <g transform="matrix(2.66001,0,0,3.45701,-319.133,-790.921)">
        <path d="M601.746,546.266L415.385,546.266L461.204,577.978L601.746,577.978L601.746,546.266Z" style="fill:white;"/>
    </g>
    <g transform="matrix(3.45701,0,0,4.17304,-798.724,-1344.56)">
        <path d="M601.746,762.195C590.44,765.352 578.781,767.869 566.827,769.686L566.827,598.341L601.746,598.341L601.746,762.195Z" style="fill:white;"/>
    </g>
    <g transform="matrix(691.402,0,0,691.402,1160.8,1207.15)">
        <path d="M0.168,0.032L0.168,-0L0.405,-0C0.516,-0 0.612,-0.039 0.692,-0.117C0.771,-0.194 0.811,-0.288 0.811,-0.399C0.811,-0.51 0.771,-0.604 0.691,-0.683C0.611,-0.761 0.516,-0.8 0.405,-0.8C0.294,-0.8 0.199,-0.761 0.12,-0.683C0.04,-0.604 0,-0.51 0,-0.399L0,0.2C0.046,0.2 0.086,0.184 0.119,0.151C0.152,0.118 0.168,0.078 0.168,0.032ZM0.169,-0.159L0.169,-0.399C0.169,-0.465 0.192,-0.522 0.238,-0.57C0.283,-0.617 0.339,-0.641 0.405,-0.641C0.471,-0.641 0.527,-0.617 0.573,-0.57C0.618,-0.522 0.641,-0.465 0.641,-0.399C0.641,-0.333 0.618,-0.277 0.573,-0.23C0.527,-0.183 0.471,-0.159 0.405,-0.159L0.169,-0.159Z" style="fill:white;fill-rule:nonzero;"/>
    </g>
    <g transform="matrix(3.45701,0,0,4.17304,-798.724,-1344.56)">
        <path d="M601.746,762.195C590.44,765.352 578.781,767.869 566.827,769.686L566.827,598.341L601.746,598.341L601.746,762.195Z" style="fill:white;"/>
    </g>
    <g transform="matrix(3.43906,0,0,3.98282,-694.135,-943.906)">
        <path d="M385.13,278.316L384.964,469.461L351.355,469.461L351.521,293.207C361.975,285.096 373.206,284.823 385.13,278.316Z" style="fill:white;"/>
    </g>
    <g transform="matrix(1.53519,0,0,3.56462,227.148,-858.16)">
        <rect x="486.535" y="262.749" width="33.778" height="519.373" style="fill:white;"/>
    </g>
</svg>
